:SAMPLES-PER-SECOND 30
:FULLY-SPECIFIED
:DEGREES
203
root  -50.5689 39.3375 7.87731 -108.24 -83.9852 100.929
RightUpLeg  -17.0216 -8.83735 -8.37278
RightLeg  -2.26414 9.82947 -1.65161
RightFoot  -1.59188 -0.873345 10.1689
RightToes  -1.74624e-010 0 -3.6325e-017
Spine  5.13633 -2.7751 -8.82246
Spine1  6.03222 -3.58681 1.49834
HEad  -18.0623 -11.9413 -0.173932
LeftShoulder1  -0.280044 4.29658 -29.1692
LeftArm  7.23121 -28.4164 -47.7529
LeftForeArm  21.9645 -31.429 -5.65546
LeftHand  -0.0421969 4.62104 2.93288
RightShoulder  -1.04452 -6.46629 28.7235
RightArm  9.7014 -15.2399 37.4465
RightForeArm  22.1058 4.89539 4.46911
RightHand  0.0559822 1.62016 0.772879
LeftUpLeg  10.3778 5.92723 -8.19794
LeftLeg  13.0222 3.99152 -0.2686
LeftFoot  -15.672 0.339495 6.50637
LeftToes  -3.96543e-010 8.93632e-011 -2.58531e-011
204
root  -51.8563 39.0785 7.77063 -104.458 -83.8232 96.9838
RightUpLeg  -16.8837 -9.22966 -8.4249
RightLeg  -3.52082 6.51533 -0.676457
RightFoot  -3.98233 -0.745414 11.1124
RightToes  -1.74624e-010 0 -3.6325e-017
Spine  4.96516 -2.7157 -9.0717
Spine1  6.16876 -3.71591 2.42802
HEad  -18.3922 -12.5022 -0.887959
LeftShoulder1  -0.333413 4.4314 -29.7814
LeftArm  6.74598 -27.3291 -47.5171
LeftForeArm  22.5019 -34.3065 -6.34939
LeftHand  -0.0603516 3.97001 3.42611
RightShoulder  -1.01794 -6.45664 27.9244
RightArm  7.79405 -16.0255 38.1131
RightForeArm  22.4483 5.17115 3.7164
RightHand  0.0827569 1.76321 1.2873
LeftUpLeg  12.5378 6.2109 -8.07738
LeftLeg  13.6209 3.13527 -0.108019
LeftFoot  -17.9298 0.443386 5.8116
LeftToes  -3.96543e-010 8.93632e-011 -2.58531e-011
205
root  -53.165 38.8332 7.63564 -103.105 -83.7869 95.7482
RightUpLeg  -18.1201 -8.95521 -7.81544
RightLeg  1.60887 2.98354 0.0156516
RightFoot  -2.16502 -0.702432 8.4716
RightToes  -1.74624e-010 0 -3.6325e-017
Spine  4.80881 -2.6768 -8.95555
Spine1  5.99691 -3.87257 3.34985
HEad  -18.641 -12.4434 -1.38992
LeftShoulder1  -0.361168 4.49996 -30.0699
LeftArm  6.64384 -24.7183 -47.1665
LeftForeArm  22.831 -36.7349 -6.98145
LeftHand  -0.0665062 3.81748 3.60621
RightShoulder  -1.01837 -6.51149 27.2865
RightArm  7.5906 -16.2622 38.5204
RightForeArm  22.6429 6.23489 3.6333
RightHand  0.178913 0.78124 3.26686
LeftUpLeg  14.4714 6.46677 -7.7577
LeftLeg  14.1106 2.44399 0.120815
LeftFoot  -19.8266 0.487986 4.99742
LeftToes  -3.96543e-010 8.93632e-011 -2.58531e-011
206
root  -54.5302 38.6695 7.4636 -96.5505 -84.6437 89.4701
RightUpLeg  -18.9593 -8.34863 -6.52387
RightLeg  6.65737 1.69645 0.214862
RightFoot  1.87865 -0.491126 4.77142
RightToes  -1.74624e-010 0 -3.6325e-017
Spine  3.58733 -3.11061 -7.39328
Spine1  6.87123 -4.28357 3.40294
HEad  -18.4399 -12.7755 -2.02856
LeftShoulder1  -0.253803 4.20652 -29.8453
LeftArm  7.17747 -21.1764 -46.7149
LeftForeArm  23.2749 -38.2355 -7.37807
LeftHand  -0.0602089 4.17801 3.90434
RightShoulder  -1.17406 -6.92052 27.8534
RightArm  8.04525 -15.7152 38.311
RightForeArm  19.7856 7.99542 3.92454
RightHand  0.131419 1.92963 1.94125
LeftUpLeg  16.1824 6.6134 -6.31196
LeftLeg  14.8982 1.13635 0.364386
LeftFoot  -21.2352 0.428264 3.43517
LeftToes  -3.96543e-010 8.93632e-011 -2.58531e-011
207
root  -55.9247 38.681 7.29933 -88.8646 -85.9644 81.5167
RightUpLeg  -19.2644 -8.44518 -5.05775
RightLeg  10.3947 3.71916 0.946308
RightFoot  8.89037 -0.0921327 0.708516
RightToes  -1.74624e-010 0 -3.6325e-017
Spine  3.86967 -3.47494 -5.92025
Spine1  6.28814 -5.03406 5.18482
HEad  -17.6803 -12.7443 -2.98645
LeftShoulder1  -0.39899 4.57195 -31.2657
LeftArm  9.6668 -17.2663 -45.3598
LeftForeArm  23.2696 -37.9883 -7.31312
LeftHand  -0.0439184 4.71809 3.75552
RightShoulder  -1.15282 -6.90894 27.317
RightArm  8.0803 -15.5915 38.7423
RightForeArm  18.86 9.5288 4.01232
RightHand  0.0560062 2.75632 0.567504
LeftUpLeg  18.7893 6.08439 -4.3624
LeftLeg  14.8429 0.329603 0.469618
LeftFoot  -20.9357 0.243161 1.43845
LeftToes  -3.96543e-010 8.93632e-011 -2.58531e-011
